<svg width="74" height="74" viewBox="0 0 74 74" fill="none" xmlns="http://www.w3.org/2000/svg">
<rect width="74" height="74" rx="10" fill="#E8E8E9"/>
<path d="M14 16V59H57" stroke="#2A3042" stroke-opacity="0.8" stroke-width="2" stroke-miterlimit="10"/>
<path d="M17.6597 48.0213L22.9965 41.5255L25.5125 44.6361L31.3068 37.683L36.415 43.8127L49.6809 27.9851" stroke="#2A3042" stroke-opacity="0.8" stroke-width="2" stroke-miterlimit="10"/>
<path d="M44.5728 27.9851H49.6809V34.1148" stroke="#2A3042" stroke-opacity="0.8" stroke-width="2" stroke-miterlimit="10"/>
<path d="M48.3084 35.6702C49.0293 35.6702 49.7431 35.5282 50.4091 35.2524C51.0751 34.9765 51.6802 34.5721 52.1899 34.0624C52.6997 33.5527 53.104 32.9475 53.3799 32.2815C53.6558 31.6155 53.7977 30.9017 53.7977 30.1808C53.7977 29.46 53.6558 28.7462 53.3799 28.0802C53.104 27.4142 52.6997 26.809 52.1899 26.2993C51.6802 25.7896 51.0751 25.3852 50.4091 25.1093C49.7431 24.8335 49.0293 24.6915 48.3084 24.6915C46.8525 24.6915 45.4563 25.2698 44.4268 26.2993C43.3974 27.3287 42.819 28.725 42.819 30.1808C42.819 31.6367 43.3974 33.033 44.4268 34.0624C45.4563 35.0919 46.8525 35.6702 48.3084 35.6702ZM54.0905 34.6693L57.3658 37.9446C57.4531 38.0291 57.5228 38.1301 57.5706 38.2418C57.6185 38.3534 57.6437 38.4735 57.6446 38.595C57.6456 38.7164 57.6224 38.8369 57.5763 38.9493C57.5302 39.0617 57.4622 39.1638 57.3762 39.2496C57.2903 39.3355 57.1881 39.4033 57.0756 39.4493C56.9631 39.4952 56.8427 39.5182 56.7212 39.5171C56.5997 39.516 56.4797 39.4906 56.3681 39.4426C56.2565 39.3946 56.1556 39.3248 56.0713 39.2374L52.7959 35.9621C51.3252 37.1037 49.4747 37.642 47.6211 37.4672C45.7675 37.2925 44.0501 36.418 42.8186 35.0216C41.5871 33.6252 40.934 31.8121 40.9924 29.9511C41.0507 28.0902 41.816 26.3215 43.1325 25.005C44.449 23.6885 46.2178 22.9232 48.0787 22.8648C49.9396 22.8065 51.7528 23.4596 53.1491 24.6911C54.5455 25.9226 55.4201 27.6399 55.5948 29.4935C55.7695 31.3471 55.2312 33.1977 54.0896 34.6684L54.0905 34.6693Z" fill="#2A3042" fill-opacity="0.8"/>
<rect x="35.0425" y="55.3404" width="2.74468" height="2.74468" fill="#2A3042" fill-opacity="0.8"/>
<rect x="47.8511" y="55.3404" width="2.74468" height="2.74468" fill="#2A3042" fill-opacity="0.8"/>
<rect x="21.3193" y="55.3404" width="2.74468" height="2.74468" fill="#2A3042" fill-opacity="0.8"/>
<rect x="14.915" y="48.9362" width="2.74468" height="2.74468" fill="#2A3042" fill-opacity="0.8"/>
<rect x="14.915" y="37.0426" width="2.74468" height="2.74468" fill="#2A3042" fill-opacity="0.8"/>
<rect x="14.915" y="24.234" width="2.74468" height="2.74468" fill="#2A3042" fill-opacity="0.8"/>
</svg>
