<svg width="74" height="74" viewBox="0 0 74 74" fill="none" xmlns="http://www.w3.org/2000/svg">
<rect width="74" height="74" rx="10" fill="#E8E8E9"/>
<path d="M57.334 39.3997C57.3246 39.3997 57.3151 39.3998 57.3056 39.4C56.3936 39.3982 55.5147 39.7411 54.8448 40.36L46.1776 48.36C45.7349 48.7712 45.153 48.9998 44.5488 49H32.3944C31.5107 49 30.7944 48.2837 30.7944 47.4C30.7944 46.5163 31.5107 45.8 32.3944 45.8H40.8056C42.5729 45.8 44.0056 44.3673 44.0056 42.6C44.0056 40.8327 42.5729 39.4 40.8056 39.4H27.7528C25.8034 39.3994 23.8933 39.9475 22.2408 40.9816L19.4 42.76V41.8H13V61H19.4V59.4H36.2664C36.7959 59.4 37.3246 59.3596 37.848 59.2792L44.416 58.2688C46.6035 57.9369 48.6267 56.9117 50.188 55.344L59.9368 45.5936C60.6197 44.9148 61.0026 43.9909 61 43.028C60.9896 41.0137 59.3482 39.3893 57.334 39.3997ZM17.8 59.4H14.6V43.4H17.8V59.4ZM58.8048 44.464L58.8056 44.4624L49.0568 54.2128C47.7356 55.5392 46.0237 56.4068 44.1728 56.688L37.6048 57.6984C37.1619 57.7661 36.7145 57.8001 36.2664 57.8H19.4V44.6432L23.0896 42.3376C24.4877 41.4631 26.1037 40.9995 27.7528 41H40.8056C41.6893 41 42.4056 41.7163 42.4056 42.6C42.4056 43.4837 41.6893 44.2 40.8056 44.2H32.3944C30.6271 44.2 29.1944 45.6327 29.1944 47.4C29.1944 49.1673 30.6271 50.6 32.3944 50.6H44.5488C45.5547 50.6011 46.5239 50.2222 47.2624 49.5392L55.9304 41.5392C56.3237 41.1819 56.8392 40.9895 57.3704 41.0016C58.4904 41.0012 59.3988 41.9088 59.3992 43.0288C59.3994 43.5671 59.1855 44.0834 58.8048 44.464Z" fill="#2A3042" fill-opacity="0.8"/>
<path d="M48.84 21.32C48.6889 21.1186 48.4518 21 48.2 21H40.7416L37.7432 13.5032C37.5791 13.093 37.1136 12.8934 36.7033 13.0575C36.5 13.1388 36.3389 13.2999 36.2576 13.5032L33.2584 21H25.8C25.3582 21 25 21.3582 25 21.8C25 22.0518 25.1186 22.2889 25.32 22.44L31.2456 26.884L28.248 35.124C28.097 35.5392 28.3112 35.9982 28.7264 36.1492C28.9885 36.2445 29.2813 36.1964 29.4992 36.0224L36.972 30.0432L43.668 35.9944C43.9984 36.2878 44.504 36.2578 44.7974 35.9274C44.9767 35.7255 45.042 35.4469 44.9712 35.1864L42.7152 26.9144L48.68 22.44C49.0335 22.1749 49.1051 21.6734 48.84 21.32ZM41.32 25.96C41.0575 26.1568 40.9418 26.4939 41.028 26.8104L42.72 33.0144L37.532 28.4024C37.2408 28.1433 36.8053 28.1319 36.5008 28.3752L30.7264 32.9944L32.9528 26.8736C33.0731 26.5422 32.9623 26.1712 32.68 25.96L28.2 22.6H33.8C34.1274 22.6001 34.4218 22.4008 34.5432 22.0968L37 15.9536L39.4568 22.0968C39.5782 22.4008 39.8727 22.6001 40.2 22.6H45.8L41.32 25.96Z" fill="#2A3042" fill-opacity="0.8"/>
<path d="M28.7659 14.8348L27.6345 15.9662L30.8346 19.1662L31.9659 18.0349L28.7659 14.8348Z" fill="#2A3042" fill-opacity="0.8"/>
<path d="M28.1999 27.4H23.3999V29H28.1999V27.4Z" fill="#2A3042" fill-opacity="0.8"/>
</svg>
