<svg width="74" height="74" viewBox="0 0 74 74" fill="none" xmlns="http://www.w3.org/2000/svg">
<rect width="74" height="74" rx="10" fill="#E8E8E9"/>
<path d="M51.25 31.612V33.25H52.75V31.75H54.25V29.5C54.25 28.2595 53.2405 27.25 52 27.25C51.5868 27.25 51.25 26.914 51.25 26.5V25.75H52C52.4132 25.75 52.75 26.086 52.75 26.5V27.25H54.25V26.5C54.25 25.5235 53.6207 24.6985 52.75 24.388V22.75H51.25V24.25H49.75V26.5C49.75 27.7405 50.7595 28.75 52 28.75C52.4132 28.75 52.75 29.086 52.75 29.5V30.25H52C51.5868 30.25 51.25 29.914 51.25 29.5V28.75H49.75V29.5C49.75 30.4765 50.3792 31.3015 51.25 31.612Z" fill="#2A3042" fill-opacity="0.8"/>
<path d="M52 36.25C56.5488 36.25 60.25 32.5487 60.25 28C60.25 23.4513 56.5488 19.75 52 19.75C48.802 19.75 46.0293 21.583 44.6605 24.25H40.75V15.25C40.75 14.4227 40.0772 13.75 39.25 13.75H22.75C21.9227 13.75 21.25 14.4227 21.25 15.25V24.25H17.5C16.2595 24.25 15.25 25.2595 15.25 26.5V52.75C14.4227 52.75 13.75 53.4227 13.75 54.25C13.75 55.3675 14.0538 56.464 14.6283 57.4217C15.6753 59.167 17.5893 60.25 19.6233 60.25H46.8767C48.9107 60.25 50.8247 59.167 51.8717 57.4217C52.4462 56.464 52.75 55.3675 52.75 54.25C52.75 53.4227 52.0773 52.75 51.25 52.75V36.2118C51.4975 36.2342 51.7465 36.25 52 36.25ZM52 21.25C55.7215 21.25 58.75 24.2778 58.75 28C58.75 31.7222 55.7215 34.75 52 34.75C48.2785 34.75 45.25 31.7222 45.25 28C45.25 24.2778 48.2785 21.25 52 21.25ZM31.3488 28.75L33.8358 32.4813C34.1567 32.9627 34.6945 33.25 35.2728 33.25C36.2253 33.25 37 32.4753 37 31.5228V28.75H43.7882C43.8932 29.908 44.236 30.9977 44.7715 31.969L37.5857 39.1067L30.883 36.1278L19.75 45.2132V28.75H31.3488ZM46.7747 34.378L38.3328 42.8552L31.6405 39.8807L19.75 49.2572V47.149L31.117 37.8722L37.9143 40.8933L45.6265 33.232C45.9707 33.6505 46.3555 34.0345 46.7747 34.378ZM24.25 47.6193V49.75H21.5478L24.25 47.6193ZM25.75 46.4365L28.75 44.071V49.75H25.75V46.4365ZM30.25 42.8883L31.8595 41.6193L33.25 42.2373V49.75H30.25V42.8883ZM34.75 42.904L37.75 44.2375V49.75H34.75V42.904ZM39.25 44.0597L42.25 41.0477V49.75H39.25V44.0597ZM43.75 39.541L46.75 36.529V49.75H43.75V39.541ZM44.0695 25.75C43.9322 26.2338 43.8347 26.7347 43.7875 27.25H40.75V25.75H44.0695ZM39.25 15.25V27.25H35.5V31.5228C35.5 31.7245 35.1955 31.816 35.0837 31.6488L32.1512 27.25H22.75V15.25H39.25ZM50.5855 56.65C49.8078 57.9453 48.3872 58.75 46.8767 58.75H19.6233C18.1128 58.75 16.6922 57.9453 15.9145 56.65C15.4802 55.9255 15.25 55.096 15.25 54.25H51.25C51.25 55.096 51.0197 55.9255 50.5855 56.65ZM49.75 52.75H16.75V26.5C16.75 26.086 17.0868 25.75 17.5 25.75H21.25V27.25H18.25V51.25H48.25V35.3395C48.7255 35.5833 49.2265 35.782 49.75 35.9305V52.75Z" fill="#2A3042" fill-opacity="0.8"/>
<path d="M24.25 16.75H28.75V18.25H24.25V16.75Z" fill="#2A3042" fill-opacity="0.8"/>
<path d="M30.25 16.75H37.75V18.25H30.25V16.75Z" fill="#2A3042" fill-opacity="0.8"/>
<path d="M24.25 19.75H37.75V21.25H24.25V19.75Z" fill="#2A3042" fill-opacity="0.8"/>
<path d="M27.25 24.25H28.75V25.75H27.25V24.25Z" fill="#2A3042" fill-opacity="0.8"/>
<path d="M30.25 24.25H31.75V25.75H30.25V24.25Z" fill="#2A3042" fill-opacity="0.8"/>
<path d="M33.25 24.25H34.75V25.75H33.25V24.25Z" fill="#2A3042" fill-opacity="0.8"/>
<path d="M42.25 55.75H43.75V57.25H42.25V55.75Z" fill="#2A3042" fill-opacity="0.8"/>
<path d="M39.25 55.75H40.75V57.25H39.25V55.75Z" fill="#2A3042" fill-opacity="0.8"/>
<path d="M45.25 55.75H46.75V57.25H45.25V55.75Z" fill="#2A3042" fill-opacity="0.8"/>
<path d="M21.25 30.25H30.25V31.75H21.25V30.25Z" fill="#2A3042" fill-opacity="0.8"/>
<path d="M21.25 33.25H27.25V34.75H21.25V33.25Z" fill="#2A3042" fill-opacity="0.8"/>
<path d="M21.25 36.25H24.25V37.75H21.25V36.25Z" fill="#2A3042" fill-opacity="0.8"/>
</svg>
